# xmcd
# 
# Track frame offsets:
#     150
#     20455
#     39952
#     55563
#     78571
# 
# Disc length: 1494
# 
# Revision: 0
# Processed by: cddbd v1.5.2PL0 Copyright (c) Steve Scherf et al.
# Submitted via: fre:ac v1.0.17
# 
DISCID=2e05d405
DTITLE=Aie ça Gicle - Aie ça Gicle
DYEAR=2008
DGENRE=Rock
TTITLE0=Tigers
TTITLE1=Freaky Ponys
TTITLE2=Now you're there
TTITLE3=Kottbullar
TTITLE4=Kimmi 
EXTD=
EXTT0=
EXTT1=
EXTT2=
EXTT3=
EXTT4=
PLAYORDER=
